<svg viewBox="0 0 500 121" xmlns="http://www.w3.org/2000/svg"><path fill="#9ec9e9" fill-opacity=".412" d="M0 0h500v121H0z"/><path d="M0 118.394l70.534-51.796h358.932L500 118.394V121H0v-2.606z" fill="#fff"/><clipPath id="a"><path d="M256.766-5.478h100.839v94.023H256.766z"/></clipPath><g clip-path="url(#a)"><path d="M317.269 77.8h-7.203v-8.059h-5.762V77.8h-7.203c-1.584 0-2.881 1.209-2.881 2.687h25.93c0-1.478-1.296-2.687-2.881-2.687z" fill="#0d1d2b"/><path d="M351.842 69.741h-89.314c-3.169 0-5.762-2.418-5.762-5.373V7.954c0-2.955 2.593-5.372 5.762-5.372h89.314c3.17 0 5.763 2.417 5.763 5.372v56.414c0 2.955-2.593 5.373-5.763 5.373z" fill="#4992d6"/><path fill="#9ec9e9" d="M262.528 7.954h89.314v56.414h-89.314z"/></g><path d="M202.899 77.8h-7.203v-8.059h-5.762V77.8h-7.203c-1.585 0-2.881 1.209-2.881 2.687h25.93c0-1.478-1.297-2.687-2.881-2.687z" fill="#0d1d2b"/><path d="M237.472 69.741h-89.314c-3.17 0-5.763-2.418-5.763-5.373V7.954c0-2.955 2.593-5.372 5.763-5.372h89.314c3.169 0 5.762 2.417 5.762 5.372v56.414c0 2.955-2.593 5.373-5.762 5.373z" fill="#4992d6"/><path fill="#9ec9e9" d="M148.158 7.954h89.314v56.414h-89.314z"/><path d="M165.287 106.809l9.066-13.01h151.294l9.066 13.01v1.222H165.287v-1.222zm72.379-31.387l3.439-3.439h17.79l3.439 3.439v5.823h-24.668v-5.823zM81.328 26.684l5.213-4.149h8.998l2.681 4.149V83.54H81.328V26.684zm337.344 0l-5.213-4.149h-8.998l-2.681 4.149V83.54h16.892V26.684z" fill="#334d61"/><g fill="#233849"><ellipse cx="89.774" cy="38.188" rx="4.05" ry="4.158"/><ellipse cx="89.774" cy="49.636" rx="4.05" ry="4.158"/><ellipse cx="89.774" cy="61.084" rx="4.05" ry="4.158"/><ellipse cx="89.774" cy="72.497" rx="4.05" ry="4.158"/></g><g fill="#233849"><ellipse cx="410.226" cy="38.188" rx="4.05" ry="4.158"/><ellipse cx="410.226" cy="49.636" rx="4.05" ry="4.158"/><ellipse cx="410.226" cy="61.084" rx="4.05" ry="4.158"/><ellipse cx="410.226" cy="72.497" rx="4.05" ry="4.158"/></g></svg>