<svg xmlns="http://www.w3.org/2000/svg" viewBox="0 0 500 121"><defs><linearGradient y2="72.8" x2="869.6" y1="75.9" x1="250" gradientUnits="userSpaceOnUse" id="a" gradientTransform="scale(1 .85816)"><stop stop-color="#4592d6" offset="0%"/><stop offset="100%"/></linearGradient></defs><path d="M0 0h500v121H0z" fill="url(#a)" stroke-width=".9"/><path d="M87 82.5v5.7H74.6v-5.7z" fill="#fff"/><path d="M87 82.5v5.7H74.6v-5.7z" fill="none"/><path d="M65.6 22.1h.1l.1.1h.1v.1h.1v.1h.1v.2l.1.1v.4H66v.1H66v.1h-.2v.1H62l-8.7 48.1H73.2v.1h.1v.1h.1v.1l1.5 2.6h11.9l1.3-2.5v-.2h.1l.1-.1h.2v-.1h19.8l-8.7-48.1H95.7v-.1h-.1v-.1h-.1V23h-.1v-.5h.1v-.1h.1v-.1h.1l.1-.1h.2l4-.2h.4v.1h.2v.1h.1v.2h.1v.2l8.9 49.4v26.6h-.1v.1l-.1.1h-.1v.1H52v-.1H52v-.2h-.1V72l8.9-49.5V22.2h.1v-.1h.1l.1-.1h4.5zm7.7 67.3h15v-8.3h-15z" fill="#fff"/><path d="M65.6 22.3H66v.1h.1v.1h.1V22.9h.1v.4H66v.1l-.1.1h-.1v.1H62l-8.7 48.1H73.2v.1h.1v.1h.1v.1l1.5 2.6h11.9l1.3-2.5v-.1h.1v-.1h.1v-.1h20l-8.7-48.2h-4v-.1l-.1-.1v-.1l-.1-.1v-.5h.1v-.1h.1v-.1h.2v-.1h.2l4-.1h.5v.1h.1v.1h.1v.1l.1.1v.2l8.9 49.4V98.7l-.1.1v.1h-.1l-.1.1H52v-.1H52v-.2h-.1V72.1l8.9-49.5v-.2l.1-.1v-.1h.2v-.1h4.5zm7.7 67.2h15v-8.3h-15z" fill="none"/><path d="M58 61.7l-.4 8c0 .3.3.6.6.6.4 0 .7-.2.7-.6l.4-7.3 42.2.1.2 7.2a.6.6 0 0 0 1.3 0l-.2-7.9c0-.3-.3-.6-.7-.6l-43.4-.1c-.4 0-.7.2-.7.6z" fill="#fff"/><path d="M58 61.7l-.4 8c0 .3.3.6.6.6.4 0 .7-.2.7-.6l.4-7.3 42.2.1.2 7.2a.6.6 0 0 0 1.3 0l-.2-7.9c0-.3-.3-.6-.7-.6l-43.4-.1c-.4 0-.7.2-.7.6z" fill="none"/><path d="M61.5 51.5c-.4 0-.6.3-.7.6l-.3 7c0 .3.2.6.6.6.4 0 .7-.2.7-.6l.3-6.3 36.6.1.1 6.2c0 .3.3.6.7.6.4 0 .6-.3.6-.7l-.2-6.7c0-.4-.3-.7-.6-.7l-37.8-.1z" fill="#fff"/><path d="M61.5 51.5c-.4 0-.6.3-.7.6l-.3 7c0 .3.2.6.6.6.4 0 .7-.2.7-.6l.3-6.3 36.6.1.1 6.2c0 .3.3.6.7.6.4 0 .6-.3.6-.7l-.2-6.7c0-.4-.3-.7-.6-.7l-37.8-.1z" fill="none"/><path d="M63.6 41.7c-.3 0-.6.2-.6.6l-.3 6.2c0 .3.2.6.6.6.3 0 .6-.2.6-.6l.3-5.5h32.3l.2 5.5c0 .3.3.6.6.6.4 0 .7-.3.7-.7l-.2-6c0-.3-.3-.6-.7-.6l-33.5-.1z" fill="#fff"/><path d="M63.6 41.7c-.3 0-.6.2-.6.6l-.3 6.2c0 .3.2.6.6.6.3 0 .6-.2.6-.6l.3-5.5h32.3l.2 5.5c0 .3.3.6.6.6.4 0 .7-.3.7-.7l-.2-6c0-.3-.3-.6-.7-.6l-33.5-.1z" fill="none"/><path d="M68.3 27.7c.3 0 .6-.2.6-.6l.2-3.9h23.4l.1 3.9c0 .3.3.6.7.6.3 0 .6-.3.6-.7l-.1-4.4c0-.3-.3-.6-.7-.6H68.5c-.3 0-.6.2-.6.5l-.3 4.5c0 .4.3.7.6.7z" fill="#fff"/><path d="M68.3 27.7c.3 0 .6-.2.6-.6l.2-3.9h23.4l.1 3.9c0 .3.3.6.7.6.3 0 .6-.3.6-.7l-.1-4.4c0-.3-.3-.6-.7-.6H68.5c-.3 0-.6.2-.6.5l-.3 4.5c0 .4.3.7.6.7z" fill="none"/><path d="M66.1 31.8c-.3 0-.6.3-.6.6l-.3 5.4c0 .4.3.7.6.7.4 0 .7-.3.7-.6l.2-4.8 28.2.1.1 4.7c0 .3.3.6.7.6.4 0 .6-.3.6-.7l-.1-5.2c0-.4-.3-.7-.7-.7H66.1z" fill="#fff"/><path d="M66.1 31.8c-.3 0-.6.3-.6.6l-.3 5.4c0 .4.3.7.6.7.4 0 .7-.3.7-.6l.2-4.8 28.2.1.1 4.7c0 .3.3.6.7.6.4 0 .6-.3.6-.7l-.1-5.2c0-.4-.3-.7-.7-.7H66.1z" fill="none"/><text style="line-height:100%" letter-spacing="0" font-size="24" y="47.62" x="179.65" font-family="Assistant" dominant-baseline="text-before-edge" fill="#fff"><tspan dominant-baseline="text-before-edge" alignment-baseline="before-edge" x="179.65">Backing up Git Projects</tspan></text></svg>