<svg viewBox="0 0 500 121" xmlns="http://www.w3.org/2000/svg" fill-rule="evenodd" clip-rule="evenodd" stroke-linejoin="round" stroke-miterlimit="1.414"><path fill="url(#_Radial1)" d="M0 0h500v121H0z"/><path d="M250.118 25.139c-16.102 0-29.75 10.916-33.98 25.707-3.677-7.845-11.643-13.342-20.82-13.342-12.619 0-22.993 10.374-22.993 22.994 0 12.619 10.374 22.998 22.993 22.998 9.177 0 17.143-5.5 20.82-13.346 4.23 14.791 17.878 25.711 33.98 25.711 15.984 0 29.562-10.755 33.9-25.38 3.745 7.668 11.613 13.015 20.659 13.015 12.619 0 22.998-10.379 22.998-22.998 0-12.62-10.379-22.994-22.998-22.994-9.046 0-16.914 5.343-20.659 13.01-4.338-14.623-17.916-25.375-33.9-25.375zm0 13.497c12.156 0 21.866 9.706 21.866 21.862 0 12.155-9.71 21.866-21.866 21.866-12.155 0-21.861-9.711-21.861-21.866 0-12.156 9.706-21.862 21.861-21.862zm-54.8 12.366c5.326 0 9.501 4.17 9.501 9.496 0 5.325-4.175 9.5-9.501 9.5-5.325 0-9.495-4.175-9.495-9.5 0-5.326 4.17-9.496 9.495-9.496zm109.359 0c5.325 0 9.5 4.17 9.5 9.496 0 5.325-4.175 9.5-9.5 9.5-5.326 0-9.496-4.175-9.496-9.5 0-5.326 4.17-9.496 9.496-9.496z" fill="#4592d6" fill-rule="nonzero"/><defs><radialGradient id="_Radial1" cx="0" cy="0" r="1" gradientUnits="userSpaceOnUse" gradientTransform="matrix(250 0 0 250 250 60.5)"><stop offset="0" stop-color="#fff"/><stop offset="1" stop-color="#4592d6"/></radialGradient></defs></svg>