<svg xmlns="http://www.w3.org/2000/svg" viewBox="0 0 41.425 40.405"><path d="M20.711 0a20.716 20.716 0 0 0-6.546 40.369c1.036.189 1.362-.425 1.362-.974 0-.492.01-1.867 0-3.6-5.761 1.252-6.955-2.728-6.955-2.728a5.485 5.485 0 0 0-2.3-3.03c-1.88-1.285.141-1.26.141-1.26a4.354 4.354 0 0 1 3.179 2.139c1.848 3.163 4.847 2.249 6.026 1.721a4.432 4.432 0 0 1 1.317-2.77c-4.6-.523-9.434-2.3-9.434-10.237a8 8 0 0 1 2.131-5.558 7.436 7.436 0 0 1 .2-5.482s1.739-.557 5.695 2.125a19.651 19.651 0 0 1 10.372 0c3.957-2.68 5.693-2.125 5.693-2.125a7.449 7.449 0 0 1 .206 5.482 8 8 0 0 1 2.129 5.558c0 7.958-4.843 9.709-9.458 10.22a4.9 4.9 0 0 1 1.423 3.817V39.4c0 .554.334 1.167 1.386.966A20.717 20.717 0 0 0 20.711 0z" fill="#000"/></svg>