<svg xmlns="http://www.w3.org/2000/svg" viewBox="0 0 37 31.644"><defs><style>.a{fill:#fff;}</style></defs><path class="a" d="M68.5,79.41a4.112,4.112,0,0,0-4.079-4.137,4.029,4.029,0,0,0-2.769,1.1A19.985,19.985,0,0,0,51.36,73.023l1.8-6.032L58.694,68.1a3.683,3.683,0,0,0,3.651,3.329h.033A3.717,3.717,0,0,0,62.369,64h-.025a3.658,3.658,0,0,0-3.255,2L51.7,64.519l-2.538,8.488-.206.008a20.134,20.134,0,0,0-10.606,3.354,4.014,4.014,0,0,0-2.769-1.1A4.149,4.149,0,0,0,33.733,83.1a7.532,7.532,0,0,0-.1,1.22C33.643,90.567,40.968,95.644,50,95.644s16.357-5.076,16.357-11.331a8.585,8.585,0,0,0-.091-1.22A4.136,4.136,0,0,0,68.5,79.41ZM34.326,81.066a2.074,2.074,0,0,1,1.137-3.782,2.034,2.034,0,0,1,1.236.42A8.142,8.142,0,0,0,34.326,81.066Zm26.658-13.35a1.36,1.36,0,1,1,1.36,1.384A1.377,1.377,0,0,1,60.985,67.716ZM41.965,82.492a2.62,2.62,0,1,1,2.62,2.62A2.617,2.617,0,0,1,41.965,82.492ZM50,91.688a9.428,9.428,0,0,1-6.362-2.447l1.038-1.022A7.861,7.861,0,0,0,50,90.23a8,8,0,0,0,5.315-2.011l1.038,1.022A9.4,9.4,0,0,1,50,91.688Zm5.463-6.576a2.62,2.62,0,1,1,2.62-2.62A2.617,2.617,0,0,1,55.463,85.112ZM65.69,81.1a8.266,8.266,0,0,0-2.414-3.412,2.02,2.02,0,0,1,1.253-.429A2.108,2.108,0,0,1,65.69,81.1Z" transform="translate(-31.5 -64)"/></svg>