<svg xmlns="http://www.w3.org/2000/svg" viewBox="0 0 49.263 40.034"><defs><style>.a{fill:#fff;}</style></defs><path class="a" d="M52.837,15.065a20.11,20.11,0,0,1-5.805,1.591,10.125,10.125,0,0,0,4.444-5.592,20.232,20.232,0,0,1-6.418,2.454,10.115,10.115,0,0,0-17.221,9.218A28.7,28.7,0,0,1,7,12.176,10.119,10.119,0,0,0,10.132,25.67,10.078,10.078,0,0,1,5.554,24.4c0,.042,0,.085,0,.128a10.115,10.115,0,0,0,8.108,9.91A10.162,10.162,0,0,1,11,34.8a10.014,10.014,0,0,1-1.9-.182,10.118,10.118,0,0,0,9.441,7.019A20.394,20.394,0,0,1,3.574,45.819,28.6,28.6,0,0,0,19.067,50.36c18.591,0,28.756-15.4,28.756-28.756q0-.657-.028-1.309A20.47,20.47,0,0,0,52.837,15.065Z" transform="translate(-3.574 -10.326)"/></svg>