<svg xmlns="http://www.w3.org/2000/svg" viewBox="0 0 264.58 64.03"><path fill="#fff" d="M0 0h264.58v64.03H0z"/><text y="34.99" x="80.68" font-size="12.7" font-family="Assistant">My Current Projects</text><path fill="#b4d3ee" d="M0 0h7.33v7.28H0z"/><path fill="#eaedf1" d="M0 9.46h7.33v7.28H0z"/><path fill="#eaedf1" d="M0 18.92h7.33v7.28H0z"/><path fill="#eaedf1" d="M0 28.38h7.33v7.28H0z"/><path fill="#eaedf1" d="M0 37.84h7.33v7.28H0z"/><path fill="#eaedf1" d="M0 47.3h7.33v7.28H0z"/><path fill="#eaedf1" d="M0 56.75h7.33v7.28H0z"/><path fill="#eaedf1" d="M9.53 0h7.33v7.28H9.53z"/><path fill="#eaedf1" d="M9.53 9.46h7.33v7.28H9.53z"/><path fill="#eaedf1" d="M9.53 18.92h7.33v7.28H9.53z"/><path fill="#eaedf1" d="M9.53 28.38h7.33v7.28H9.53z"/><path fill="#eaedf1" d="M9.53 37.84h7.33v7.28H9.53z"/><path fill="#eaedf1" d="M9.53 47.3h7.33v7.28H9.53z"/><path fill="#eaedf1" d="M9.53 56.75h7.33v7.28H9.53z"/><path fill="#eaedf1" d="M19.06 0h7.33v7.28h-7.33z"/><path fill="#eaedf1" d="M19.06 9.46h7.33v7.28h-7.33z"/><path fill="#b4d3ee" d="M19.06 18.92h7.33v7.28h-7.33z"/><path fill="#b4d3ee" d="M19.06 28.38h7.33v7.28h-7.33z"/><path fill="#b4d3ee" d="M19.06 37.84h7.33v7.28h-7.33z"/><path fill="#eaedf1" d="M19.06 47.3h7.33v7.28h-7.33z"/><path fill="#eaedf1" d="M19.06 56.75h7.33v7.28h-7.33z"/><path fill="#eaedf1" d="M28.58 0h7.33v7.28h-7.33z"/><path fill="#eaedf1" d="M28.58 9.46h7.33v7.28h-7.33z"/><path fill="#eaedf1" d="M28.58 18.92h7.33v7.28h-7.33z"/><path fill="#eaedf1" d="M28.58 28.38h7.33v7.28h-7.33z"/><path fill="#eaedf1" d="M28.58 37.84h7.33v7.28h-7.33z"/><path fill="#b4d3ee" d="M28.58 47.3h7.33v7.28h-7.33z"/><path fill="#b4d3ee" d="M28.58 56.75h7.33v7.28h-7.33z"/><path fill="#60a2dc" d="M38.11 0h7.33v7.28h-7.33z"/><path fill="#b4d3ee" d="M38.11 9.46h7.33v7.28h-7.33z"/><path fill="#eaedf1" d="M38.11 18.92h7.33v7.28h-7.33z"/><path fill="#b4d3ee" d="M38.11 28.38h7.33v7.28h-7.33z"/><path fill="#4592D6" d="M38.11 37.84h7.33v7.28h-7.33z"/><path fill="#60a2dc" d="M38.11 47.3h7.33v7.28h-7.33z"/><path fill="#b4d3ee" d="M38.11 56.75h7.33v7.28h-7.33z"/><path fill="#b4d3ee" d="M47.64 0h7.33v7.28h-7.33z"/><path fill="#eaedf1" d="M47.64 9.46h7.33v7.28h-7.33z"/><path fill="#b4d3ee" d="M47.64 18.92h7.33v7.28h-7.33z"/><path fill="#60a2dc" d="M47.64 28.38h7.33v7.28h-7.33z"/><path fill="#b4d3ee" d="M47.64 37.84h7.33v7.28h-7.33z"/><path fill="#b4d3ee" d="M47.64 47.3h7.33v7.28h-7.33z"/><path fill="#b4d3ee" d="M47.64 56.75h7.33v7.28h-7.33z"/><path fill="#b4d3ee" d="M57.17 0h7.33v7.28h-7.33z"/><path fill="#eaedf1" d="M57.17 9.46h7.33v7.28h-7.33z"/><path fill="#eaedf1" d="M57.17 47.3h7.33v7.28h-7.33z"/><path fill="#b4d3ee" d="M57.17 56.75h7.33v7.28h-7.33z"/><path fill="#b4d3ee" d="M66.7 0h7.33v7.28H66.7z"/><path fill="#b4d3ee" d="M66.7 9.46h7.33v7.28H66.7z"/><path fill="#60a2dc" d="M66.7 47.3h7.33v7.28H66.7z"/><path fill="#eaedf1" d="M66.7 56.75h7.33v7.28H66.7z"/><path fill="#b4d3ee" d="M76.22 0h7.33v7.28h-7.33z"/><path fill="#b4d3ee" d="M76.22 9.46h7.33v7.28h-7.33z"/><path fill="#b4d3ee" d="M76.22 47.3h7.33v7.28h-7.33z"/><path fill="#b4d3ee" d="M76.22 56.75h7.33v7.28h-7.33z"/><path fill="#b4d3ee" d="M85.75 0h7.33v7.28h-7.33z"/><path fill="#60a2dc" d="M85.75 9.46h7.33v7.28h-7.33z"/><path fill="#eaedf1" d="M85.75 47.3h7.33v7.28h-7.33z"/><path fill="#b4d3ee" d="M85.75 56.75h7.33v7.28h-7.33z"/><path fill="#eaedf1" d="M95.28 0h7.33v7.28h-7.33z"/><path fill="#b4d3ee" d="M95.28 9.46h7.33v7.28h-7.33z"/><path fill="#b4d3ee" d="M95.28 47.3h7.33v7.28h-7.33z"/><path fill="#eaedf1" d="M95.28 56.75h7.33v7.28h-7.33z"/><path fill="#eaedf1" d="M104.81 0h7.33v7.28h-7.33z"/><path fill="#b4d3ee" d="M104.81 9.46h7.33v7.28h-7.33z"/><path fill="#eaedf1" d="M104.81 47.3h7.33v7.28h-7.33z"/><path fill="#eaedf1" d="M104.81 56.75h7.33v7.28h-7.33z"/><path fill="#eaedf1" d="M114.34 0h7.33v7.28h-7.33z"/><path fill="#eaedf1" d="M114.34 9.46h7.33v7.28h-7.33z"/><path fill="#eaedf1" d="M114.34 47.3h7.33v7.28h-7.33z"/><path fill="#b4d3ee" d="M114.34 56.75h7.33v7.28h-7.33z"/><path fill="#eaedf1" d="M123.86 0h7.33v7.28h-7.33z"/><path fill="#eaedf1" d="M123.86 9.46h7.33v7.28h-7.33z"/><path fill="#eaedf1" d="M123.86 47.3h7.33v7.28h-7.33z"/><path fill="#eaedf1" d="M123.86 56.75h7.33v7.28h-7.33z"/><path fill="#eaedf1" d="M133.39 0h7.33v7.28h-7.33z"/><path fill="#eaedf1" d="M133.39 9.46h7.33v7.28h-7.33z"/><path fill="#eaedf1" d="M133.39 47.3h7.33v7.28h-7.33z"/><path fill="#b4d3ee" d="M133.39 56.75h7.33v7.28h-7.33z"/><path fill="#b4d3ee" d="M142.92 0h7.33v7.28h-7.33z"/><path fill="#eaedf1" d="M142.92 9.46h7.33v7.28h-7.33z"/><path fill="#eaedf1" d="M142.92 47.3h7.33v7.28h-7.33z"/><path fill="#eaedf1" d="M142.92 56.75h7.33v7.28h-7.33z"/><path fill="#eaedf1" d="M152.45 0h7.33v7.28h-7.33z"/><path fill="#eaedf1" d="M152.45 9.46h7.33v7.28h-7.33z"/><path fill="#eaedf1" d="M152.45 47.3h7.33v7.28h-7.33z"/><path fill="#eaedf1" d="M152.45 56.75h7.33v7.28h-7.33z"/><path fill="#b4d3ee" d="M161.97 0h7.33v7.28h-7.33z"/><path fill="#eaedf1" d="M161.97 9.46h7.33v7.28h-7.33z"/><path fill="#eaedf1" d="M161.97 47.3h7.33v7.28h-7.33z"/><path fill="#eaedf1" d="M161.97 56.75h7.33v7.28h-7.33z"/><path fill="#eaedf1" d="M171.5 0h7.33v7.28h-7.33z"/><path fill="#eaedf1" d="M171.5 9.46h7.33v7.28h-7.33z"/><path fill="#eaedf1" d="M171.5 47.3h7.33v7.28h-7.33z"/><path fill="#eaedf1" d="M171.5 56.75h7.33v7.28h-7.33z"/><path fill="#eaedf1" d="M181.03 0h7.33v7.28h-7.33z"/><path fill="#b4d3ee" d="M181.03 9.46h7.33v7.28h-7.33z"/><path fill="#b4d3ee" d="M181.03 47.3h7.33v7.28h-7.33z"/><path fill="#101216" d="M181.03 56.75h7.33v7.28h-7.33z"/><path fill="#b4d3ee" d="M190.56 0h7.33v7.28h-7.33z"/><path fill="#b4d3ee" d="M190.56 9.46h7.33v7.28h-7.33z"/><path fill="#eaedf1" d="M190.56 47.3h7.33v7.28h-7.33z"/><path fill="#b4d3ee" d="M190.56 56.75h7.33v7.28h-7.33z"/><path fill="#eaedf1" d="M200.09 0h7.33v7.28h-7.33z"/><path fill="#60a2dc" d="M200.09 9.46h7.33v7.28h-7.33z"/><path fill="#b4d3ee" d="M200.09 47.3h7.33v7.28h-7.33z"/><path fill="#eaedf1" d="M200.09 56.75h7.33v7.28h-7.33z"/><path fill="#60a2dc" d="M209.61 0h7.33v7.28h-7.33z"/><path fill="#101216" d="M209.61 9.46h7.33v7.28h-7.33z"/><path fill="#eaedf1" d="M209.61 18.92h7.33v7.28h-7.33z"/><path fill="#b4d3ee" d="M209.61 28.38h7.33v7.28h-7.33z"/><path fill="#b4d3ee" d="M209.61 37.84h7.33v7.28h-7.33z"/><path fill="#b4d3ee" d="M209.61 47.3h7.33v7.28h-7.33z"/><path fill="#60a2dc" d="M209.61 56.75h7.33v7.28h-7.33z"/><path fill="#b4d3ee" d="M219.14 0h7.33v7.28h-7.33z"/><path fill="#60a2dc" d="M219.14 9.46h7.33v7.28h-7.33z"/><path fill="#b4d3ee" d="M219.14 18.92h7.33v7.28h-7.33z"/><path fill="#101216" d="M219.14 28.38h7.33v7.28h-7.33z"/><path fill="#4592D6" d="M219.14 37.84h7.33v7.28h-7.33z"/><path fill="#b4d3ee" d="M219.14 47.3h7.33v7.28h-7.33z"/><path fill="#eaedf1" d="M219.14 56.75h7.33v7.28h-7.33z"/><path fill="#60a2dc" d="M228.67 0H236v7.28h-7.33z"/><path fill="#b4d3ee" d="M228.67 9.46H236v7.28h-7.33z"/><path fill="#4592D6" d="M228.67 18.92H236v7.28h-7.33z"/><path fill="#4592D6" d="M228.67 28.38H236v7.28h-7.33z"/><path fill="#b4d3ee" d="M228.67 37.84H236v7.28h-7.33z"/><path fill="#eaedf1" d="M228.67 47.3H236v7.28h-7.33z"/><path fill="#eaedf1" d="M228.67 56.75H236v7.28h-7.33z"/><path fill="#b4d3ee" d="M238.2 0h7.33v7.28h-7.33z"/><path fill="#eaedf1" d="M238.2 9.46h7.33v7.28h-7.33z"/><path fill="#eaedf1" d="M238.2 18.92h7.33v7.28h-7.33z"/><path fill="#eaedf1" d="M238.2 28.38h7.33v7.28h-7.33z"/><path fill="#eaedf1" d="M238.2 37.84h7.33v7.28h-7.33z"/><path fill="#eaedf1" d="M238.2 47.3h7.33v7.28h-7.33z"/><path fill="#b4d3ee" d="M238.2 56.75h7.33v7.28h-7.33z"/><path fill="#eaedf1" d="M247.73 0h7.33v7.28h-7.33z"/><path fill="#60a2dc" d="M247.73 9.46h7.33v7.28h-7.33z"/><path fill="#eaedf1" d="M247.73 18.92h7.33v7.28h-7.33z"/><path fill="#eaedf1" d="M247.73 28.38h7.33v7.28h-7.33z"/><path fill="#b4d3ee" d="M247.73 37.84h7.33v7.28h-7.33z"/><path fill="#b4d3ee" d="M247.73 47.3h7.33v7.28h-7.33z"/><path fill="#60a2dc" d="M247.73 56.75h7.33v7.28h-7.33z"/><path fill="#b4d3ee" d="M257.25 0h7.33v7.28h-7.33z"/><path fill="#eaedf1" d="M257.25 9.46h7.33v7.28h-7.33z"/><path fill="#eaedf1" d="M257.25 18.92h7.33v7.28h-7.33z"/><path fill="#eaedf1" d="M257.25 37.84h7.33v7.28h-7.33zM257.25 28.38h7.33v7.28h-7.33zM257.25 47.3h7.33v7.28h-7.33zM257.25 56.75h7.33v7.28h-7.33z"/></svg>