<svg xmlns="http://www.w3.org/2000/svg" width="1000" height="242" viewBox="0 0 1000 242">
	<defs>
		<style>
		#anline {
			animation: anline 10s ease infinite;
		}

		@keyframes anline {
			0% { clip-path: polygon(50% 0%, 50% 0%, 50% 100%, 50% 100%); }
			47% { clip-path: polygon(50% 0, 50% 0%, 50% 100%, 50% 100%); }
			50% { clip-path: polygon(0% 0%, 100% 0%, 100% 100%, 0% 100%); }
			97% { clip-path: polygon(0% 0%, 100% 0%, 100% 100%, 0% 100%); }
			100% { clip-path: polygon(50% 0%, 50% 0%, 50% 100%, 50% 100%); }
		}
		</style>
	</defs>
  <title>Unbenannt-1</title>
  <rect id="BG" width="1000" height="242" style="fill: #4592d6"/>
  <g id="Text">
    <path d="M80.38,124.51c.41,3,3.22,4.86,7.27,4.86,3.83,0,6.6-2,6.6-4.79,0-2.36-1.56-3.93-5.47-4.79l-3.12-.68c-5.64-1.23-8.09-3.79-8.09-7.79,0-4.65,4.1-7.91,9.94-7.91,5.63,0,9.69,3.36,9.84,8.14H93.84c-.31-3.09-2.75-5-6.43-5-3.52,0-6.23,1.72-6.23,4.59,0,2.23,1.5,3.75,5.35,4.59l3.13.68c5.88,1.29,8.2,3.63,8.2,7.62,0,5.21-4.1,8.48-10.41,8.48-6.15,0-10.25-3.16-10.59-8Z" style="fill: #fff"/>
    <path d="M101.18,106a2.13,2.13,0,1,1,2.13,2.13A2.12,2.12,0,0,1,101.18,106Zm.43,5.74H105v20.31h-3.4Z" style="fill: #fff"/>
    <path d="M109.6,111.76h3.2V115h.08a6.07,6.07,0,0,1,5.76-3.59,5.68,5.68,0,0,1,5.7,3.87h.08a6.8,6.8,0,0,1,6.37-3.87,6.22,6.22,0,0,1,6.62,6.64v14H134V118.83c0-2.77-1.54-4.41-4.22-4.41a4.49,4.49,0,0,0-4.59,4.75v12.91h-3.4V118.46a3.86,3.86,0,0,0-4.16-4,4.65,4.65,0,0,0-4.65,4.92v12.73h-3.4Z" style="fill: #fff"/>
    <path d="M160.29,121.91c0,6.37-3.5,10.51-8.61,10.51a7.14,7.14,0,0,1-6.46-3.65h-.08v10.08h-3.4V111.76H145v3.44H145a7.29,7.29,0,0,1,6.56-3.79C156.77,111.41,160.29,115.55,160.29,121.91Zm-3.48,0c0-4.59-2.27-7.52-5.88-7.52s-5.82,3-5.82,7.52,2.34,7.52,5.82,7.52S156.81,126.52,156.81,121.91Z" style="fill: #fff"/>
    <path d="M163.88,103.89h3.4v28.18h-3.4Z" style="fill: #fff"/>
    <path d="M188.68,126.25c-.59,3.55-4,6.17-8.46,6.17-5.82,0-9.36-4-9.36-10.43s3.59-10.59,9.2-10.59,8.87,4,8.87,10.14v1.29H174.37v.2c0,3.89,2.29,6.45,5.94,6.45,2.58,0,4.47-1.31,5-3.22Zm-14.3-6.07h11c-.08-3.4-2.21-5.82-5.41-5.82S174.6,116.8,174.39,120.17Z" style="fill: #fff"/>
    <path d="M191.85,137.67l1.89-9.94h3.61l-2.68,9.94Z" style="fill: #fff"/>
    <path d="M212.26,128.63h-.08v3.44h-3.24V103.89h3.4v11.27h.08a7.2,7.2,0,0,1,6.5-3.75c5.12,0,8.57,4.14,8.57,10.51s-3.44,10.51-8.63,10.51A7.29,7.29,0,0,1,212.26,128.63Zm.06-6.72c0,4.53,2.44,7.52,5.88,7.52,3.59,0,5.82-2.87,5.82-7.52s-2.23-7.52-5.82-7.52C214.76,114.39,212.32,117.4,212.32,121.91Z" style="fill: #fff"/>
    <path d="M247.75,126.25c-.59,3.55-4,6.17-8.46,6.17-5.82,0-9.36-4-9.36-10.43s3.59-10.59,9.2-10.59,8.87,4,8.87,10.14v1.29H233.43v.2c0,3.89,2.29,6.45,5.94,6.45,2.58,0,4.47-1.31,5-3.22Zm-14.3-6.07h11c-.08-3.4-2.21-5.82-5.41-5.82S233.66,116.8,233.45,120.17Z" style="fill: #fff"/>
    <path d="M250.6,126.33c0-3.48,2.68-5.66,7.36-5.94l5.82-.33v-1.7c0-2.48-1.64-4-4.45-4-2.62,0-4.26,1.23-4.69,3.22h-3.28c.23-3.52,3.24-6.21,8-6.21s7.77,2.58,7.77,6.62v14H264v-3.5h-.08a7.41,7.41,0,0,1-6.52,3.85C253.31,132.42,250.6,130,250.6,126.33Zm13.18-2v-1.66l-5.43.33c-2.73.18-4.3,1.39-4.3,3.3s1.62,3.2,4.06,3.2C261.32,129.53,263.78,127.28,263.78,124.35Z" style="fill: #fff"/>
    <path d="M288.18,132.07H285v-3.3h-.08a6.68,6.68,0,0,1-6.45,3.65c-4.43,0-7-2.87-7-7.48V111.76h3.4v12.58c0,3.3,1.54,5.08,4.69,5.08,3.3,0,5.29-2.27,5.29-5.72V111.76h3.4Z" style="fill: #fff"/>
    <path d="M297.06,106.85v4.9H301v2.79h-3.95v12.07c0,1.86.78,2.7,2.52,2.7a13.22,13.22,0,0,0,1.41-.1v2.85a12.11,12.11,0,0,1-2.15.16c-3.73,0-5.18-1.52-5.18-5.43V114.55h-3v-2.79h3v-4.9Z" style="fill: #fff"/>
    <path d="M304.37,106a2.13,2.13,0,1,1,2.13,2.13A2.12,2.12,0,0,1,304.37,106Zm.43,5.74h3.4v20.31h-3.4Z" style="fill: #fff"/>
    <path d="M313.88,114.55H311v-2.79h2.83v-2.27c0-3.91,1.82-5.76,5.57-5.76a14.47,14.47,0,0,1,2.07.16v2.75a11.31,11.31,0,0,0-1.54-.12c-1.84,0-2.71,1-2.71,3v2.25h4.16v2.79h-4.14v17.52h-3.4Z" style="fill: #fff"/>
    <path d="M341.61,132.07h-3.22v-3.3h-.08a6.68,6.68,0,0,1-6.45,3.65c-4.43,0-7-2.87-7-7.48V111.76h3.4v12.58c0,3.3,1.54,5.08,4.69,5.08,3.3,0,5.29-2.27,5.29-5.72V111.76h3.4Z" style="fill: #fff"/>
    <path d="M346.18,103.89h3.4v28.18h-3.4Z" style="fill: #fff"/>
    <path d="M362.12,106a2.13,2.13,0,1,1,2.13,2.13A2.12,2.12,0,0,1,362.12,106Zm.43,5.74h3.4v20.31h-3.4Z" style="fill: #fff"/>
    <path d="M370.54,111.76h3.2V115h.08a6.8,6.8,0,0,1,6.45-3.59c4.45,0,7,2.87,7,7.48v13.18h-3.4V119.49c0-3.28-1.54-5.08-4.67-5.08s-5.29,2.27-5.29,5.7v12h-3.4Z" style="fill: #fff"/>
    <path d="M410.17,121.91c0,6.37-3.5,10.51-8.61,10.51a7.14,7.14,0,0,1-6.46-3.65H395v10.08h-3.4V111.76h3.22v3.44h.08a7.29,7.29,0,0,1,6.56-3.79C406.65,111.41,410.17,115.55,410.17,121.91Zm-3.48,0c0-4.59-2.27-7.52-5.88-7.52s-5.82,3-5.82,7.52,2.34,7.52,5.82,7.52S406.69,126.52,406.69,121.91Z" style="fill: #fff"/>
    <path d="M430.27,132.07H427v-3.3H427a6.68,6.68,0,0,1-6.45,3.65c-4.43,0-7-2.87-7-7.48V111.76h3.4v12.58c0,3.3,1.54,5.08,4.69,5.08,3.3,0,5.29-2.27,5.29-5.72V111.76h3.4Z" style="fill: #fff"/>
    <path d="M439.15,106.85v4.9h3.95v2.79h-3.95v12.07c0,1.86.78,2.7,2.52,2.7a13.22,13.22,0,0,0,1.41-.1v2.85a12.11,12.11,0,0,1-2.15.16c-3.73,0-5.18-1.52-5.18-5.43V114.55h-3v-2.79h3v-4.9Z" style="fill: #fff"/>
    <path d="M456,114.55h-2.83v-2.79H456v-2.27c0-3.91,1.82-5.76,5.57-5.76a14.47,14.47,0,0,1,2.07.16v2.75a11.31,11.31,0,0,0-1.54-.12c-1.84,0-2.71,1-2.71,3v2.25h4.16v2.79h-4.14v17.52H456Z" style="fill: #fff"/>
    <path d="M466.81,106a2.13,2.13,0,1,1,2.13,2.13A2.12,2.12,0,0,1,466.81,106Zm.43,5.74h3.4v20.31h-3.4Z" style="fill: #fff"/>
    <path d="M492,126.25c-.59,3.55-4,6.17-8.46,6.17-5.82,0-9.36-4-9.36-10.43s3.59-10.59,9.2-10.59,8.87,4,8.87,10.14v1.29H477.73v.2c0,3.89,2.29,6.45,5.94,6.45,2.58,0,4.47-1.31,5-3.22Zm-14.3-6.07h11c-.08-3.4-2.21-5.82-5.41-5.82S478,116.8,477.75,120.17Z" style="fill: #fff"/>
    <path d="M495.89,103.89h3.4v28.18h-3.4Z" style="fill: #fff"/>
    <path d="M502.88,121.91c0-6.37,3.5-10.51,8.61-10.51a7.14,7.14,0,0,1,6.46,3.65H518V103.89h3.4v28.18H518.2v-3.44h-.06a7.27,7.27,0,0,1-6.56,3.79C506.4,132.42,502.88,128.28,502.88,121.91Zm3.48,0c0,4.61,2.27,7.52,5.86,7.52s5.84-3,5.84-7.52-2.34-7.52-5.84-7.52S506.36,117.32,506.36,121.91Z" style="fill: #fff"/>
    <path d="M533.14,111.41c4.45,0,7.42,2.62,7.56,6.21h-3.24c-.25-2.13-1.82-3.44-4.32-3.44s-4.12,1.23-4.12,3c0,1.41,1,2.36,3.3,2.91l3.22.78c4.1,1,5.59,2.6,5.59,5.51,0,3.54-3.34,6-7.87,6-4.77,0-7.73-2.4-8.12-6.21h3.4c.41,2.32,2,3.44,4.73,3.44s4.45-1.17,4.45-3c0-1.46-.8-2.3-3.12-2.87l-3.22-.78c-3.83-.92-5.68-2.7-5.68-5.62C525.68,113.89,528.74,111.41,533.14,111.41Z" style="fill: #fff"/>
    <path d="M573,132.07h-3.46L565,116.35h-.08l-4.57,15.72h-3.46l-5.68-20.31h3.38l4.06,16.52h.08l4.59-16.52h3.28l4.61,16.52h.08l4.06-16.52h3.36Z" style="fill: #fff"/>
    <path d="M581.2,106a2.13,2.13,0,1,1,2.13,2.13A2.12,2.12,0,0,1,581.2,106Zm.43,5.74H585v20.31h-3.4Z" style="fill: #fff"/>
    <path d="M594.11,106.85v4.9h3.95v2.79h-3.95v12.07c0,1.86.78,2.7,2.52,2.7a13.22,13.22,0,0,0,1.41-.1v2.85a12.11,12.11,0,0,1-2.15.16c-3.73,0-5.18-1.52-5.18-5.43V114.55h-3v-2.79h3v-4.9Z" style="fill: #fff"/>
    <path d="M601.85,103.89h3.4V115h.08c1.13-2.27,3.36-3.59,6.45-3.59,4.45,0,7.15,3,7.15,7.54v13.13h-3.4v-12.5c0-3.22-1.62-5.16-4.8-5.16-3.38,0-5.47,2.3-5.47,5.82v11.84h-3.4Z" style="fill: #fff"/>
    <path d="M640.11,132.07l-10.39-28.18h3.69l8.38,23.91h.12l8.38-23.91H654l-10.39,28.18Z" style="fill: #fff"/>
    <path d="M671.79,132.07h-3.22v-3.3h-.08a6.68,6.68,0,0,1-6.45,3.65c-4.43,0-7-2.87-7-7.48V111.76h3.4v12.58c0,3.3,1.54,5.08,4.69,5.08,3.3,0,5.29-2.27,5.29-5.72V111.76h3.4Z" style="fill: #fff"/>
    <path d="M693,126.25c-.59,3.55-4,6.17-8.46,6.17-5.82,0-9.36-4-9.36-10.43s3.59-10.59,9.2-10.59,8.87,4,8.87,10.14v1.29H678.68v.2c0,3.89,2.29,6.45,5.94,6.45,2.58,0,4.47-1.31,5-3.22Zm-14.3-6.07h11c-.08-3.4-2.21-5.82-5.41-5.82S678.92,116.8,678.7,120.17Z" style="fill: #fff"/>
    <path d="M697.32,130a2.23,2.23,0,1,1,2.23,2.23A2.2,2.2,0,0,1,697.32,130Z" style="fill: #fff"/>
    <path d="M710.4,133.07c0,4.12-2,6-6.29,6-.06,0-.61,0-.64,0v-2.83H704c2.21,0,3-.84,3-3.11V111.76h3.4ZM706.55,106a2.13,2.13,0,1,1,2.13,2.13A2.12,2.12,0,0,1,706.55,106Z" style="fill: #fff"/>
    <path d="M722.1,111.41c4.45,0,7.42,2.62,7.56,6.21h-3.24c-.25-2.13-1.82-3.44-4.32-3.44s-4.12,1.23-4.12,3c0,1.41,1,2.36,3.3,2.91l3.22.78c4.1,1,5.59,2.6,5.59,5.51,0,3.54-3.34,6-7.87,6-4.77,0-7.73-2.4-8.12-6.21h3.4c.41,2.32,2,3.44,4.73,3.44s4.45-1.17,4.45-3c0-1.46-.8-2.3-3.12-2.87l-3.22-.78c-3.83-.92-5.68-2.7-5.68-5.62C714.64,113.89,717.71,111.41,722.1,111.41Z" style="fill: #fff"/>
  </g>
  <line y1="146" y2="148" x1="75" x2="925" style="stroke: #fff; stroke-width: 2px;" />
  <line y1="146" y2="148" x1="75" x2="925" id="anline" style="stroke: #d34747; stroke-width: 2px;" />
</svg>